<?xml version="1.0" encoding="UTF-8" standalone="no"?>
<!-- Created with Inkscape (http://www.inkscape.org/) -->

<svg
   version="1.1"
   id="svg1"
   width="691.56"
   height="292.53333"
   viewBox="0 0 691.56 292.53333"
   sodipodi:docname="logo.svg"
   inkscape:version="1.3 (0e150ed6c4, 2023-07-21)"
   xmlns:inkscape="http://www.inkscape.org/namespaces/inkscape"
   xmlns:sodipodi="http://sodipodi.sourceforge.net/DTD/sodipodi-0.dtd"
   xmlns="http://www.w3.org/2000/svg"
   xmlns:svg="http://www.w3.org/2000/svg">
  <defs
     id="defs1" />
  <sodipodi:namedview
     id="namedview1"
     pagecolor="#ffffff"
     bordercolor="#000000"
     borderopacity="0.25"
     inkscape:showpageshadow="2"
     inkscape:pageopacity="0.0"
     inkscape:pagecheckerboard="0"
     inkscape:deskcolor="#d1d1d1"
     inkscape:zoom="1.5197525"
     inkscape:cx="345.78"
     inkscape:cy="146.40542"
     inkscape:window-width="1600"
     inkscape:window-height="831"
     inkscape:window-x="0"
     inkscape:window-y="32"
     inkscape:window-maximized="1"
     inkscape:current-layer="g1">
    <inkscape:page
       x="0"
       y="0"
       inkscape:label="1"
       id="page1"
       width="691.56"
       height="292.53333"
       margin="0"
       bleed="0" />
  </sodipodi:namedview>
  <g
     id="g1"
     inkscape:groupmode="layer"
     inkscape:label="1">
    <g
       id="group-R5">
      <text
         id="text2"
         xml:space="preserve"
         transform="matrix(1.3333333,0,0,1.3333333,29.076533,202.70933)"><tspan
           style="font-variant:normal;font-weight:normal;font-size:16px;font-family:Arial;writing-mode:lr-tb;fill:#183167;fill-opacity:1;fill-rule:nonzero;stroke:none"
           x="0 10.208 19.200188 25.295887 31.647448 40.991199 49.839832 55.935528 59.710918 68.334946 78.031227 82.846657 86.79882 96.446266 106.83008 116.47853 124.58986 130.68654 137.0381 140.81348 150.5098 158.62112 163.43752 173.69342 180.04497 189.38873 199.03717 207.14848 217.53227 226.87602 233.22758 242.92389 252.57135 261.41998 271.08307 275.89951 279.85165 289.49911 293.27451 299.37119 303.14658 312.49033 318.58701 322.3624 330.98639"
           y="0"
           sodipodi:role="line"
           id="tspan2">Extractive Industries Transparency Initiative</tspan><tspan
           style="font-variant:normal;font-weight:normal;font-size:16px;font-family:Arial;writing-mode:lr-tb;fill:#183167;fill-opacity:1;fill-rule:nonzero;stroke:none"
           x="0 12.496099 22.191408 32.575207 42.271496 48.623058 52.430679 61.774429 71.422867"
           y="21"
           sodipodi:role="line"
           id="tspan3">Nederland</tspan></text>
      <path
         id="path3"
         d="M 2752.14,1643.29 H 3131 v 206.39 h -645.35 v -206.39 h 266.49"
         style="fill:#183167;fill-opacity:1;fill-rule:nonzero;stroke:none"
         transform="matrix(0.13333333,0,0,-0.13333333,0,292.53333)" />
      <path
         id="path4"
         d="m 2724.05,1310.69 h 283.92 v 190.73 H 2485.65 V 934.449 H 3131 v 206.391 h -406.95 v 169.85"
         style="fill:#183167;fill-opacity:1;fill-rule:nonzero;stroke:none"
         transform="matrix(0.13333333,0,0,-0.13333333,0,292.53333)" />
      <path
         id="path5"
         d="m 3609.65,1849.68 h -238.41 v -206.39 h 238.41 v 206.39"
         style="fill:#27568c;fill-opacity:1;fill-rule:nonzero;stroke:none"
         transform="matrix(0.13333333,0,0,-0.13333333,0,292.53333)" />
      <path
         id="path6"
         d="m 3371.25,934.449 h 238.41 V 1501.42 H 3371.25 V 934.449"
         style="fill:#27568c;fill-opacity:1;fill-rule:nonzero;stroke:none"
         transform="matrix(0.13333333,0,0,-0.13333333,0,292.53333)" />
      <path
         id="path7"
         d="m 4307.13,1643.29 h 188.12 v 206.39 h -645.34 v -206.39 h 188.12 269.1"
         style="fill:#3d90be;fill-opacity:1;fill-rule:nonzero;stroke:none"
         transform="matrix(0.13333333,0,0,-0.13333333,0,292.53333)" />
      <path
         id="path8"
         d="m 4053.38,934.449 h 238.4 v 566.971 h -238.4 V 934.449"
         style="fill:#3d90be;fill-opacity:1;fill-rule:nonzero;stroke:none"
         transform="matrix(0.13333333,0,0,-0.13333333,0,292.53333)" />
      <path
         id="path9"
         d="m 4973.9,1849.68 h -238.39 v -206.39 h 238.39 v 206.39"
         style="fill:#59c9f1;fill-opacity:1;fill-rule:nonzero;stroke:none"
         transform="matrix(0.13333333,0,0,-0.13333333,0,292.53333)" />
      <path
         id="path10"
         d="M 4735.51,934.449 H 4973.9 V 1501.42 H 4735.51 V 934.449"
         style="fill:#59c9f1;fill-opacity:1;fill-rule:nonzero;stroke:none"
         transform="matrix(0.13333333,0,0,-0.13333333,0,292.53333)" />
      <path
         id="path11"
         d="m 218.078,1850.15 h 258.516 l 357.117,-490.37 v 490.37 H 1092.23 V 934.699 H 833.711 L 476.594,1425.07 V 934.699 H 218.078 v 915.451"
         style="fill:#ec6918;fill-opacity:1;fill-rule:nonzero;stroke:none"
         transform="matrix(0.13333333,0,0,-0.13333333,0,292.53333)" />
      <path
         id="path12"
         d="M 1937.02,1165.22 V 934.699 H 1252.1 v 915.451 h 258.51 v -684.93 h 426.41"
         style="fill:#ec6918;fill-opacity:1;fill-rule:nonzero;stroke:none"
         transform="matrix(0.13333333,0,0,-0.13333333,0,292.53333)" />
      <path
         id="path13"
         d="m 2018.27,1410.41 h 378.44 v -210.54 h -378.44 v 210.54"
         style="fill:#183167;fill-opacity:1;fill-rule:nonzero;stroke:none"
         transform="matrix(0.13333333,0,0,-0.13333333,0,292.53333)" />
    </g>
  </g>
</svg>
